<svg width="70" height="70" viewBox="0 0 70 70" xmlns="http://www.w3.org/2000/svg">
<defs>
  <radialGradient id="nur_s" cx="50%" cy="50%" r="50%">
    <stop offset="0%" stop-color="#FFFFFF" stop-opacity="1"/>
    <stop offset="35%" stop-color="#FFF8DC" stop-opacity="0.92"/>
    <stop offset="100%" stop-color="#C9880A" stop-opacity="0"/>
  </radialGradient>
</defs>
<rect x="0" y="0" width="70" height="70" rx="8" fill="#1C1400" stroke="#C9A84C" stroke-width="1.1"/>
<path d="M35 32 Q18 24 10 31 Q14 42 30 39 Q33 38 35 37" fill="#FFF5B0" opacity="0.6" stroke="#C9A84C" stroke-width="0.4"/>
<path d="M35 32 Q52 24 60 31 Q56 42 40 39 Q37 38 35 37" fill="#FFF5B0" opacity="0.6" stroke="#C9A84C" stroke-width="0.4"/>
<circle cx="35" cy="30" r="18" fill="url(#nur_s)"/>
<line x1="35" y1="8" x2="35" y2="2" stroke="#FFF5B0" stroke-width="1" opacity="0.8"/>
<line x1="48" y1="14" x2="53" y2="9" stroke="#FFF5B0" stroke-width="0.8" opacity="0.65"/>
<line x1="22" y1="14" x2="17" y2="9" stroke="#FFF5B0" stroke-width="0.8" opacity="0.65"/>
<circle cx="35" cy="30" r="7" fill="#FFFFFF" opacity="0.96"/>
<circle cx="35" cy="30" r="3.5" fill="#FFFFFF"/>
<text x="35" y="60" text-anchor="middle" font-family="sans-serif" font-size="6" fill="#C9A84C" opacity="0.55" letter-spacing="1">G·A</text>
</svg>
