<svg width="400" height="100" viewBox="0 0 400 100" xmlns="http://www.w3.org/2000/svg">
<defs>
  <radialGradient id="nur_m" cx="50%" cy="50%" r="50%">
    <stop offset="0%" stop-color="#FFFFFF" stop-opacity="1"/>
    <stop offset="35%" stop-color="#FFF8DC" stop-opacity="0.92"/>
    <stop offset="100%" stop-color="#C9880A" stop-opacity="0"/>
  </radialGradient>
</defs>
<rect x="0" y="0" width="400" height="100" rx="10" fill="#1C1400" stroke="#C9A84C" stroke-width="1.6"/>
<rect x="4" y="4" width="392" height="92" rx="7" fill="none" stroke="#C9A84C" stroke-width="0.4" opacity="0.3"/>
<path d="M200 50 Q136 32 96 44 Q104 66 172 60 Q187 58 200 57" fill="#E8C96A" opacity="0.3" stroke="#C9A84C" stroke-width="0.5"/>
<path d="M200 50 Q264 32 304 44 Q296 66 228 60 Q213 58 200 57" fill="#E8C96A" opacity="0.3" stroke="#C9A84C" stroke-width="0.5"/>
<path d="M200 52 Q148 38 116 48 Q122 66 186 62 Q194 60 200 59" fill="#FFF5B0" opacity="0.58" stroke="#C9A84C" stroke-width="0.5"/>
<path d="M200 52 Q252 38 284 48 Q278 66 214 62 Q206 60 200 59" fill="#FFF5B0" opacity="0.58" stroke="#C9A84C" stroke-width="0.5"/>
<circle cx="200" cy="48" r="28" fill="url(#nur_m)"/>
<line x1="200" y1="16" x2="200" y2="8" stroke="#FFF5B0" stroke-width="1.2" opacity="0.82"/>
<line x1="222" y1="24" x2="229" y2="18" stroke="#FFF5B0" stroke-width="1" opacity="0.66"/>
<line x1="178" y1="24" x2="171" y2="18" stroke="#FFF5B0" stroke-width="1" opacity="0.66"/>
<line x1="231" y1="46" x2="240" y2="44" stroke="#FFF5B0" stroke-width="0.9" opacity="0.58"/>
<line x1="169" y1="46" x2="160" y2="44" stroke="#FFF5B0" stroke-width="0.9" opacity="0.58"/>
<circle cx="200" cy="48" r="10" fill="#FFFFFF" opacity="0.96"/>
<circle cx="200" cy="48" r="5" fill="#FFFFFF"/>
<text x="200" y="80" text-anchor="middle" font-family="serif" font-size="12" fill="#E8C96A" opacity="0.92" letter-spacing="1">كِرَامًا كَاتِبِين</text>
<text x="200" y="93" text-anchor="middle" font-family="serif" font-size="8" fill="#FFF5B0" opacity="0.6" font-style="italic">"Choose the better path"</text>
</svg>
